<svg xmlns="http://www.w3.org/2000/svg" width="570" height="314.002" viewBox="0 0 570 314.002">
  <g id="グループ_1" data-name="グループ 1" transform="translate(685 557.001) rotate(180)">
    <path id="パス_1" data-name="パス 1" d="M427.259,557a22.14,22.14,0,0,1-14.426-5.191c-3.738-3.187-11.738-12.48-5.3-29.884l22.212-60.044-276.109,15.79A36.379,36.379,0,0,1,115,441.181V358.818a36.285,36.285,0,0,1,38.7-36.4l276.5,16.94-22.67-61.281c-6.438-17.4,1.562-26.7,5.3-29.883s14.181-9.616,30.345-.509L668.832,374.824h0C679.107,380.614,685,389.791,685,400s-5.893,19.385-16.168,25.174L443.179,552.318C437.024,555.785,431.7,557,427.259,557Zm28.289-131.777A17.577,17.577,0,0,1,472.032,448.9l-21.878,59.137L641.9,400,450.154,291.963l22.377,60.486a17.577,17.577,0,0,1-17.56,23.644L151.553,357.5a1.168,1.168,0,0,0-1.4,1.315v82.363a1.254,1.254,0,0,0,1.474,1.393l302.914-17.322C454.878,425.234,455.214,425.224,455.548,425.224Zm196.4-19.535Zm0-11.379-226.9-116.438Zm15.166-12.931Z"/>
  </g>
</svg>
